<?xml version="1.0" encoding="UTF-8" standalone="no"?>
<!DOCTYPE svg PUBLIC "-//W3C//DTD SVG 1.1//EN"
 "http://www.w3.org/Graphics/SVG/1.1/DTD/svg11.dtd">
<!-- Generated by graphviz version 2.43.0 (0)
 -->
<!-- Title: snakemake_dag Pages: 1 -->
<svg width="403pt" height="476pt"
 viewBox="0.00 0.00 402.50 476.00" xmlns="http://www.w3.org/2000/svg" xmlns:xlink="http://www.w3.org/1999/xlink">
<g id="graph0" class="graph" transform="scale(1 1) rotate(0) translate(4 472)">
<title>snakemake_dag</title>
<polygon fill="white" stroke="transparent" points="-4,4 -4,-472 398.5,-472 398.5,4 -4,4"/>
<!-- 0 -->
<g id="node1" class="node">
<title>0</title>
<path fill="none" stroke="#d85656" stroke-width="2" d="M212,-36C212,-36 182,-36 182,-36 176,-36 170,-30 170,-24 170,-24 170,-12 170,-12 170,-6 176,0 182,0 182,0 212,0 212,0 218,0 224,-6 224,-12 224,-12 224,-24 224,-24 224,-30 218,-36 212,-36"/>
<text text-anchor="middle" x="197" y="-15.5" font-family="sans" font-size="10.00">all</text>
</g>
<!-- 1 -->
<g id="node2" class="node">
<title>1</title>
<path fill="none" stroke="#567bd8" stroke-width="2" d="M71,-108C71,-108 25,-108 25,-108 19,-108 13,-102 13,-96 13,-96 13,-84 13,-84 13,-78 19,-72 25,-72 25,-72 71,-72 71,-72 77,-72 83,-78 83,-84 83,-84 83,-96 83,-96 83,-102 77,-108 71,-108"/>
<text text-anchor="middle" x="48" y="-87.5" font-family="sans" font-size="10.00">raxml_tree</text>
</g>
<!-- 1&#45;&gt;0 -->
<g id="edge1" class="edge">
<title>1&#45;&gt;0</title>
<path fill="none" stroke="grey" stroke-width="2" d="M83.31,-72.41C106.61,-61.47 137.05,-47.16 160.57,-36.11"/>
<polygon fill="grey" stroke="grey" stroke-width="2" points="162.3,-39.17 169.86,-31.75 159.32,-32.83 162.3,-39.17"/>
</g>
<!-- 2 -->
<g id="node3" class="node">
<title>2</title>
<path fill="none" stroke="#56d8c9" stroke-width="2" d="M60,-180C60,-180 12,-180 12,-180 6,-180 0,-174 0,-168 0,-168 0,-156 0,-156 0,-150 6,-144 12,-144 12,-144 60,-144 60,-144 66,-144 72,-150 72,-156 72,-156 72,-168 72,-168 72,-174 66,-180 60,-180"/>
<text text-anchor="middle" x="36" y="-159.5" font-family="sans" font-size="10.00">mafft_align</text>
</g>
<!-- 2&#45;&gt;1 -->
<g id="edge5" class="edge">
<title>2&#45;&gt;1</title>
<path fill="none" stroke="grey" stroke-width="2" d="M38.97,-143.7C40.29,-135.98 41.88,-126.71 43.35,-118.11"/>
<polygon fill="grey" stroke="grey" stroke-width="2" points="46.83,-118.55 45.07,-108.1 39.93,-117.37 46.83,-118.55"/>
</g>
<!-- 3 -->
<g id="node4" class="node">
<title>3</title>
<path fill="none" stroke="#56c9d8" stroke-width="2" d="M160,-108C160,-108 124,-108 124,-108 118,-108 112,-102 112,-96 112,-96 112,-84 112,-84 112,-78 118,-72 124,-72 124,-72 160,-72 160,-72 166,-72 172,-78 172,-84 172,-84 172,-96 172,-96 172,-102 166,-108 160,-108"/>
<text text-anchor="middle" x="142" y="-87.5" font-family="sans" font-size="10.00">quast_qc</text>
</g>
<!-- 3&#45;&gt;0 -->
<g id="edge2" class="edge">
<title>3&#45;&gt;0</title>
<path fill="none" stroke="grey" stroke-width="2" d="M155.6,-71.7C162.12,-63.39 170.07,-53.28 177.25,-44.14"/>
<polygon fill="grey" stroke="grey" stroke-width="2" points="180.13,-46.13 183.56,-36.1 174.63,-41.81 180.13,-46.13"/>
</g>
<!-- 4 -->
<g id="node5" class="node">
<title>4</title>
<path fill="none" stroke="#56d87b" stroke-width="2" d="M182,-180C182,-180 102,-180 102,-180 96,-180 90,-174 90,-168 90,-168 90,-156 90,-156 90,-150 96,-144 102,-144 102,-144 182,-144 182,-144 188,-144 194,-150 194,-156 194,-156 194,-168 194,-168 194,-174 188,-180 182,-180"/>
<text text-anchor="middle" x="142" y="-159.5" font-family="sans" font-size="10.00">spades_assembly</text>
</g>
<!-- 4&#45;&gt;3 -->
<g id="edge6" class="edge">
<title>4&#45;&gt;3</title>
<path fill="none" stroke="grey" stroke-width="2" d="M142,-143.7C142,-135.98 142,-126.71 142,-118.11"/>
<polygon fill="grey" stroke="grey" stroke-width="2" points="145.5,-118.1 142,-108.1 138.5,-118.1 145.5,-118.1"/>
</g>
<!-- 5 -->
<g id="node6" class="node">
<title>5</title>
<path fill="none" stroke="#d8c356" stroke-width="2" d="M301.5,-108C301.5,-108 202.5,-108 202.5,-108 196.5,-108 190.5,-102 190.5,-96 190.5,-96 190.5,-84 190.5,-84 190.5,-78 196.5,-72 202.5,-72 202.5,-72 301.5,-72 301.5,-72 307.5,-72 313.5,-78 313.5,-84 313.5,-84 313.5,-96 313.5,-96 313.5,-102 307.5,-108 301.5,-108"/>
<text text-anchor="middle" x="252" y="-87.5" font-family="sans" font-size="10.00">snpeff_annotate_snps</text>
</g>
<!-- 5&#45;&gt;0 -->
<g id="edge3" class="edge">
<title>5&#45;&gt;0</title>
<path fill="none" stroke="grey" stroke-width="2" d="M238.4,-71.7C231.88,-63.39 223.93,-53.28 216.75,-44.14"/>
<polygon fill="grey" stroke="grey" stroke-width="2" points="219.37,-41.81 210.44,-36.1 213.87,-46.13 219.37,-41.81"/>
</g>
<!-- 6 -->
<g id="node7" class="node">
<title>6</title>
<path fill="none" stroke="#9fd856" stroke-width="2" d="M289.5,-180C289.5,-180 224.5,-180 224.5,-180 218.5,-180 212.5,-174 212.5,-168 212.5,-168 212.5,-156 212.5,-156 212.5,-150 218.5,-144 224.5,-144 224.5,-144 289.5,-144 289.5,-144 295.5,-144 301.5,-150 301.5,-156 301.5,-156 301.5,-168 301.5,-168 301.5,-174 295.5,-180 289.5,-180"/>
<text text-anchor="middle" x="257" y="-159.5" font-family="sans" font-size="10.00">gatk_call_snps</text>
</g>
<!-- 6&#45;&gt;5 -->
<g id="edge7" class="edge">
<title>6&#45;&gt;5</title>
<path fill="none" stroke="grey" stroke-width="2" d="M255.76,-143.7C255.21,-135.98 254.55,-126.71 253.94,-118.11"/>
<polygon fill="grey" stroke="grey" stroke-width="2" points="257.43,-117.83 253.22,-108.1 250.44,-118.33 257.43,-117.83"/>
</g>
<!-- 7 -->
<g id="node8" class="node">
<title>7</title>
<path fill="none" stroke="#56a2d8" stroke-width="2" d="M255.5,-252C255.5,-252 182.5,-252 182.5,-252 176.5,-252 170.5,-246 170.5,-240 170.5,-240 170.5,-228 170.5,-228 170.5,-222 176.5,-216 182.5,-216 182.5,-216 255.5,-216 255.5,-216 261.5,-216 267.5,-222 267.5,-228 267.5,-228 267.5,-240 267.5,-240 267.5,-246 261.5,-252 255.5,-252"/>
<text text-anchor="middle" x="219" y="-231.5" font-family="sans" font-size="10.00">gatk_preprocess</text>
</g>
<!-- 7&#45;&gt;6 -->
<g id="edge8" class="edge">
<title>7&#45;&gt;6</title>
<path fill="none" stroke="grey" stroke-width="2" d="M228.39,-215.7C232.76,-207.64 238.06,-197.89 242.9,-188.98"/>
<polygon fill="grey" stroke="grey" stroke-width="2" points="246.02,-190.56 247.71,-180.1 239.87,-187.22 246.02,-190.56"/>
</g>
<!-- 8 -->
<g id="node9" class="node">
<title>8</title>
<path fill="none" stroke="#d87d56" stroke-width="2" d="M217.5,-324C217.5,-324 152.5,-324 152.5,-324 146.5,-324 140.5,-318 140.5,-312 140.5,-312 140.5,-300 140.5,-300 140.5,-294 146.5,-288 152.5,-288 152.5,-288 217.5,-288 217.5,-288 223.5,-288 229.5,-294 229.5,-300 229.5,-300 229.5,-312 229.5,-312 229.5,-318 223.5,-324 217.5,-324"/>
<text text-anchor="middle" x="185" y="-303.5" font-family="sans" font-size="10.00">gatk_sam_sort</text>
</g>
<!-- 8&#45;&gt;7 -->
<g id="edge10" class="edge">
<title>8&#45;&gt;7</title>
<path fill="none" stroke="grey" stroke-width="2" d="M193.4,-287.7C197.27,-279.73 201.95,-270.1 206.24,-261.26"/>
<polygon fill="grey" stroke="grey" stroke-width="2" points="209.47,-262.63 210.69,-252.1 203.17,-259.57 209.47,-262.63"/>
</g>
<!-- 9 -->
<g id="node10" class="node">
<title>9</title>
<path fill="none" stroke="#c6d856" stroke-width="2" d="M227.5,-396C227.5,-396 142.5,-396 142.5,-396 136.5,-396 130.5,-390 130.5,-384 130.5,-384 130.5,-372 130.5,-372 130.5,-366 136.5,-360 142.5,-360 142.5,-360 227.5,-360 227.5,-360 233.5,-360 239.5,-366 239.5,-372 239.5,-372 239.5,-384 239.5,-384 239.5,-390 233.5,-396 227.5,-396"/>
<text text-anchor="middle" x="185" y="-375.5" font-family="sans" font-size="10.00">bowtie_map_reads</text>
</g>
<!-- 9&#45;&gt;8 -->
<g id="edge12" class="edge">
<title>9&#45;&gt;8</title>
<path fill="none" stroke="grey" stroke-width="2" d="M185,-359.7C185,-351.98 185,-342.71 185,-334.11"/>
<polygon fill="grey" stroke="grey" stroke-width="2" points="188.5,-334.1 185,-324.1 181.5,-334.1 188.5,-334.1"/>
</g>
<!-- 10 -->
<g id="node11" class="node">
<title>10</title>
<path fill="none" stroke="#d8a456" stroke-width="2" d="M215.5,-468C215.5,-468 154.5,-468 154.5,-468 148.5,-468 142.5,-462 142.5,-456 142.5,-456 142.5,-444 142.5,-444 142.5,-438 148.5,-432 154.5,-432 154.5,-432 215.5,-432 215.5,-432 221.5,-432 227.5,-438 227.5,-444 227.5,-444 227.5,-456 227.5,-456 227.5,-462 221.5,-468 215.5,-468"/>
<text text-anchor="middle" x="185" y="-447.5" font-family="sans" font-size="10.00">bowtie2_build</text>
</g>
<!-- 10&#45;&gt;9 -->
<g id="edge13" class="edge">
<title>10&#45;&gt;9</title>
<path fill="none" stroke="grey" stroke-width="2" d="M185,-431.7C185,-423.98 185,-414.71 185,-406.11"/>
<polygon fill="grey" stroke="grey" stroke-width="2" points="188.5,-406.1 185,-396.1 181.5,-406.1 188.5,-406.1"/>
</g>
<!-- 11 -->
<g id="node12" class="node">
<title>11</title>
<path fill="none" stroke="#56d8a2" stroke-width="2" stroke-dasharray="5,2" d="M333,-324C333,-324 259,-324 259,-324 253,-324 247,-318 247,-312 247,-312 247,-300 247,-300 247,-294 253,-288 259,-288 259,-288 333,-288 333,-288 339,-288 345,-294 345,-300 345,-300 345,-312 345,-312 345,-318 339,-324 333,-324"/>
<text text-anchor="middle" x="296" y="-303.5" font-family="sans" font-size="10.00">gatk_create_dict</text>
</g>
<!-- 11&#45;&gt;6 -->
<g id="edge9" class="edge">
<title>11&#45;&gt;6</title>
<path fill="none" stroke="grey" stroke-width="2" d="M292.78,-287.78C289.26,-269.73 283.15,-240.64 276,-216 273.48,-207.32 270.3,-198.01 267.27,-189.64"/>
<polygon fill="grey" stroke="grey" stroke-width="2" points="270.46,-188.17 263.7,-180.01 263.9,-190.6 270.46,-188.17"/>
</g>
<!-- 11&#45;&gt;7 -->
<g id="edge11" class="edge">
<title>11&#45;&gt;7</title>
<path fill="none" stroke="grey" stroke-width="2" d="M276.97,-287.7C267.46,-279.05 255.79,-268.45 245.43,-259.03"/>
<polygon fill="grey" stroke="grey" stroke-width="2" points="247.57,-256.24 237.81,-252.1 242.86,-261.42 247.57,-256.24"/>
</g>
<!-- 12 -->
<g id="node13" class="node">
<title>12</title>
<path fill="none" stroke="#78d856" stroke-width="2" stroke-dasharray="5,2" d="M382.5,-108C382.5,-108 343.5,-108 343.5,-108 337.5,-108 331.5,-102 331.5,-96 331.5,-96 331.5,-84 331.5,-84 331.5,-78 337.5,-72 343.5,-72 343.5,-72 382.5,-72 382.5,-72 388.5,-72 394.5,-78 394.5,-84 394.5,-84 394.5,-96 394.5,-96 394.5,-102 388.5,-108 382.5,-108"/>
<text text-anchor="middle" x="363" y="-87.5" font-family="sans" font-size="10.00">run_gwas</text>
</g>
<!-- 12&#45;&gt;0 -->
<g id="edge4" class="edge">
<title>12&#45;&gt;0</title>
<path fill="none" stroke="grey" stroke-width="2" d="M331.39,-75.67C303.5,-63.91 262.84,-46.77 233.56,-34.42"/>
<polygon fill="grey" stroke="grey" stroke-width="2" points="234.68,-31.09 224.1,-30.43 231.96,-37.54 234.68,-31.09"/>
</g>
</g>
</svg>
